<svg xmlns="http://www.w3.org/2000/svg" width="100" height="94" fill="none" xmlns:v="https://vecta.io/nano"><path d="M91.667 0H8.333C3.733 0 0 3.941 0 8.799v52.796c0 4.858 3.733 8.799 8.333 8.799h33.333L37.5 87.994H25c-1.528 0-2.778 1.32-2.778 2.933S23.472 93.86 25 93.86h50c1.528 0 2.778-1.32 2.778-2.933s-1.25-2.933-2.778-2.933H62.5l-4.167-17.599h33.333c4.601 0 8.333-3.941 8.333-8.799V8.799C100 3.941 96.267 0 91.667 0zM43.229 87.994l2.778-11.732h7.986l2.778 11.732H43.229zm51.215-26.398c0 1.613-1.25 2.933-2.778 2.933H8.333c-1.528 0-2.778-1.32-2.778-2.933v-8.799h88.889v8.799zm0-14.666H5.556V8.799c0-1.613 1.25-2.933 2.778-2.933h83.333c1.528 0 2.778 1.32 2.778 2.933V46.93z" fill="#3fa5d5"/></svg>