<svg xmlns="http://www.w3.org/2000/svg" width="100" height="94" fill="none" xmlns:v="https://vecta.io/nano"><path d="M97.368 24.927l-4.304-4.545a8.65 8.65 0 0 0-12.719 0L66.668 34.783V24.195c0-2.328-.885-4.584-2.448-6.232L49.657 2.585C48.095.935 45.977 0 43.773 0H8.332C3.733.018 0 3.96 0 8.817v76.255c0 4.857 3.733 8.799 8.332 8.799h50.004c4.599 0 8.332-3.942 8.332-8.799V70.305c1.092-.858 2.191-1.714 3.156-2.741l27.542-29.206c1.7-1.793 2.634-4.178 2.634-6.716s-.934-4.921-2.632-6.716zM44.45 5.975a2.7 2.7 0 0 1 1.285.77l14.563 15.379a2.93 2.93 0 0 1 .729 1.357H44.45V5.975zm16.664 79.096c0 1.613-1.25 2.933-2.778 2.933H8.332c-1.528 0-2.778-1.32-2.778-2.933V8.817c0-1.613 1.25-2.95 2.778-2.95h30.563v19.08c0 2.438 1.858 4.387 4.167 4.387h18.052v11.281l-8.422 8.844c-5.233 5.493-8.233 13.111-8.241 20.901-.682-.053-1.297-.444-1.625-1.149-2.078-4.375-8.03-5.563-11.458-2.598l-2.41-7.631c-.57-1.799-2.16-3.009-3.955-3.009s-3.385 1.208-3.955 3.009l-3.165 10.02c-.261.84-1.004 1.401-1.839 1.401h-2.155c-1.535 0-2.778 1.313-2.778 2.933s1.243 2.934 2.778 2.934h2.155c3.233 0 6.092-2.178 7.113-5.414L25 65.009l2.919 9.255c.788 2.477 4.017 2.719 5.122.381l1.33-2.811c.696-1.48 2.743-1.575 3.511.062 1.259 2.651 3.769 4.318 6.564 4.373h5.556c3.828-.002 7.63-.898 11.113-2.493v11.296zm4.771-21.643c-2.082 2.211-4.557 3.965-7.283 5.162a21.37 21.37 0 0 1-8.601 1.813v-.005c0-6.298 2.378-12.337 6.608-16.777l20.929-21.977 9.167 9.68-20.82 22.105zm27.554-29.217l-3.679 3.885-9.167-9.68 3.681-3.885a3.31 3.31 0 0 1 4.863 0l4.304 4.545c1.34 1.417 1.34 3.716-.002 5.135z" fill="#3fa5d5"/></svg>