<svg xmlns="http://www.w3.org/2000/svg" width="100" height="111" fill="none" xmlns:v="https://vecta.io/nano"><path d="M80.404 103.5H53.602V92.63c11.243-1.425 22.107-6.285 30.757-14.639 19.467-18.794 20.726-48.388 3.982-68.7l4.049-3.907a1.72 1.72 0 0 0 .388-.559 1.67 1.67 0 0 0 0-1.32 1.72 1.72 0 0 0-.388-.559L89.861.505A1.82 1.82 0 0 0 88.598 0a1.82 1.82 0 0 0-1.263.505l-8.806 8.502c.254.235.527.44.777.679C88.08 18.158 92.913 29.42 92.913 41.4S88.08 64.642 79.306 73.114 58.864 86.25 46.455 86.25s-24.076-4.666-32.851-13.136c-.248-.239-.462-.504-.703-.748L.524 84.316a1.72 1.72 0 0 0-.388.559 1.67 1.67 0 0 0 0 1.32 1.72 1.72 0 0 0 .388.559l2.527 2.439a1.82 1.82 0 0 0 1.263.505 1.82 1.82 0 0 0 1.263-.505l7.621-7.357c9.719 7.465 21.487 11.176 33.259 11.206V103.5H19.651c-2.96 0-5.359 2.316-5.359 5.175 0 .953.799 1.725 1.786 1.725h67.9c.987 0 1.786-.772 1.786-1.725.002-2.859-2.397-5.175-5.359-5.175zM46.455 79.35c10.06 0 20.121-3.704 27.797-11.115 15.35-14.82 15.35-38.849 0-53.669C66.576 7.154 56.515 3.45 46.455 3.45S26.334 7.154 18.658 14.566c-15.351 14.82-15.351 38.849 0 53.669 7.676 7.411 17.737 11.115 27.797 11.115zM23.712 19.445c6.076-5.865 14.152-9.095 22.743-9.095s16.667 3.23 22.743 9.095 9.42 13.662 9.42 21.955-3.346 16.09-9.42 21.955-14.152 9.095-22.743 9.095-16.667-3.23-22.743-9.095-9.42-13.662-9.42-21.955 3.346-16.09 9.42-21.955z" fill="#3fa5d5"/></svg>