<svg xmlns="http://www.w3.org/2000/svg" width="60" height="51" fill="none" xmlns:v="https://vecta.io/nano"><path d="M53.123 9.285l-9.917 7.587a4.64 4.64 0 0 1 .073.705 4.67 4.67 0 0 1-1.463 3.376c-.937.895-2.207 1.398-3.531 1.398s-2.595-.503-3.531-1.398a4.67 4.67 0 0 1-1.463-3.376c.006-.237.031-.473.074-.706l-9.918-7.587c-.98.384-2.068.44-3.086.158L9.802 19.54c.265.962.208 1.98-.163 2.909a4.81 4.81 0 0 1-1.904 2.274c-.868.549-1.893.825-2.933.789s-2.042-.383-2.865-.991S.509 23.073.21 22.12s-.278-1.972.059-2.913a4.79 4.79 0 0 1 1.822-2.336 5.14 5.14 0 0 1 2.903-.885 5.19 5.19 0 0 1 1.278.177l10.56-10.096a4.57 4.57 0 0 1-.185-1.221 4.67 4.67 0 0 1 1.463-3.376C19.045.575 20.315.072 21.64.072s2.595.503 3.531 1.398a4.67 4.67 0 0 1 1.463 3.376 4.53 4.53 0 0 1-.074.706l9.917 7.586c1.16-.447 2.456-.447 3.616 0l9.919-7.587a4.63 4.63 0 0 1-.074-.705 4.67 4.67 0 0 1 .964-2.868A5.03 5.03 0 0 1 53.461.221a5.25 5.25 0 0 1 3.15.042c1.018.336 1.897.976 2.506 1.825a4.66 4.66 0 0 1 .879 2.893c-.038 1.029-.421 2.02-1.092 2.825s-1.595 1.384-2.636 1.65a5.25 5.25 0 0 1-3.145-.172z" fill="#3fa5d5"/><path d="M41.614 31.902h-6.658c-.441 0-.865.168-1.177.466s-.488.703-.488 1.125v15.915c0 .422.175.827.488 1.125s.736.466 1.177.466h6.658c.441 0 .865-.168 1.177-.466s.487-.703.487-1.125V33.493c0-.422-.175-.827-.487-1.125s-.736-.466-1.177-.466zM58.26 19.17h-6.658c-.441 0-.865.168-1.177.466s-.488.703-.488 1.125v28.647c0 .422.175.827.488 1.125s.736.466 1.177.466h6.658c.441 0 .865-.168 1.177-.466s.488-.703.488-1.125V20.761c0-.422-.175-.827-.488-1.125s-.736-.466-1.177-.466zm-33.291 0H18.31c-.442 0-.865.168-1.177.466s-.487.703-.487 1.125v28.647c0 .422.175.827.487 1.125s.736.466 1.177.466h6.658c.442 0 .865-.168 1.177-.466s.487-.703.487-1.125V20.761c0-.422-.175-.827-.487-1.125s-.736-.466-1.177-.466zM8.323 35.085H1.665c-.441 0-.865.168-1.177.466S0 36.254 0 36.676v12.732c0 .422.175.827.488 1.125S1.223 51 1.665 51h6.658c.441 0 .865-.168 1.177-.466s.488-.703.488-1.125V36.676c0-.422-.175-.827-.488-1.125s-.736-.466-1.177-.466z" fill="#2a86b1"/></svg>