<svg xmlns="http://www.w3.org/2000/svg" width="40" height="46" fill="none" xmlns:v="https://vecta.io/nano"><path d="M28.571 31.539h-.42c-1.086 0-2.143.259-3.17.607-3.232 1.096-6.736 1.096-9.968 0-1.025-.348-2.08-.605-3.162-.605h-.423a11.43 11.43 0 0 0-8.081 3.347A11.43 11.43 0 0 0 0 42.967c0 .758.301 1.484.837 2.02s1.263.837 2.02.837h34.286c.758 0 1.484-.301 2.02-.837s.837-1.263.837-2.02a11.43 11.43 0 0 0-11.429-11.429zM2.857 42.967a8.58 8.58 0 0 1 8.571-8.571h.423c.618 0 1.332.145 2.246.455a18.37 18.37 0 0 0 11.8 0c.921-.312 1.637-.456 2.254-.456h.42a8.58 8.58 0 0 1 8.571 8.571l-34.286.002zM4.286 20.11a1.43 1.43 0 0 0 1.429-1.429v-1.429C5.714 9.376 12.123 2.967 20 2.967s14.286 6.409 14.286 14.286v1.429a7.15 7.15 0 0 1-7.143 7.143h-2.857c0-.758-.301-1.485-.837-2.02s-1.263-.837-2.02-.837h-2.857c-.758 0-1.485.301-2.02.837s-.837 1.263-.837 2.02.301 1.485.837 2.02 1.263.837 2.02.837h8.572a10.01 10.01 0 0 0 7.067-2.933c1.875-1.875 2.929-4.416 2.933-7.067v-1.429C37.143 7.799 29.454.11 20 .11S2.857 7.799 2.857 17.253v1.429a1.43 1.43 0 0 0 1.429 1.429zM20 8.681c1.655-.007 3.277.467 4.668 1.365s2.49 2.181 3.164 3.693.894 3.187.632 4.822-.992 3.158-2.104 4.384c0 .008.012.013.016.021h.767c.725-.002 1.437-.187 2.071-.54s1.167-.861 1.55-1.476c.397-1.166.665-2.396.665-3.698A11.43 11.43 0 0 0 20 5.824 11.43 11.43 0 0 0 8.571 17.253c0 3.609 1.705 6.786 4.317 8.881-.005-.105-.031-.204-.031-.31.006-1.006.282-1.993.797-2.857-1.118-1.225-1.854-2.749-2.12-4.385s-.048-3.315.625-4.831 1.773-2.802 3.165-3.702S18.342 8.673 20 8.681z" fill="#939393"/></svg>