<svg xmlns="http://www.w3.org/2000/svg" width="40" height="27" fill="none" xmlns:v="https://vecta.io/nano"><path d="M38.333 0H6.111a1.68 1.68 0 0 0-1.667 1.688v.563H1.667C.746 2.25 0 3.006 0 3.938v19.688C0 25.489 1.492 27 3.333 27h35A1.68 1.68 0 0 0 40 25.313V1.688A1.68 1.68 0 0 0 38.333 0zM2.222 23.625V4.5h2.222v19.125a1.12 1.12 0 0 1-1.111 1.125 1.12 1.12 0 0 1-1.111-1.125zm35.556 1.125H6.476c.126-.361.191-.742.19-1.125V2.25h31.111v22.5zM9.722 18h11.667a.84.84 0 0 0 .833-.844V5.344a.84.84 0 0 0-.833-.844H9.722a.84.84 0 0 0-.833.844v11.812a.84.84 0 0 0 .833.844zm1.389-11.25H20v9h-8.889v-9zM8.889 21.656v-.562a.84.84 0 0 1 .833-.844h11.667a.84.84 0 0 1 .833.844v.562a.84.84 0 0 1-.833.844H9.722a.84.84 0 0 1-.833-.844zm15.556 0v-.562a.84.84 0 0 1 .833-.844h9.444a.84.84 0 0 1 .833.844v.562a.84.84 0 0 1-.833.844h-9.444a.84.84 0 0 1-.833-.844zm0-4.5v-.562a.84.84 0 0 1 .833-.844h9.444a.84.84 0 0 1 .833.844v.562a.84.84 0 0 1-.833.844h-9.444a.84.84 0 0 1-.833-.844zm0-9v-.562a.84.84 0 0 1 .833-.844h9.444a.84.84 0 0 1 .833.844v.563a.84.84 0 0 1-.833.844h-9.444a.84.84 0 0 1-.833-.844zm0 4.5v-.562a.84.84 0 0 1 .833-.844h9.444a.84.84 0 0 1 .833.844v.562a.84.84 0 0 1-.833.844h-9.444a.84.84 0 0 1-.833-.844z" fill="#2a86b1"/></svg>