<svg xmlns="http://www.w3.org/2000/svg" width="40" height="47" fill="none" xmlns:v="https://vecta.io/nano"><path d="M38.929 15.106c.589 0 1.071-.482 1.071-1.071v-3.571c0-.589-.482-1.071-1.071-1.071h-1.786V6.534A5.72 5.72 0 0 0 31.429.82H5.714A5.72 5.72 0 0 0 0 6.534V40.82a5.72 5.72 0 0 0 5.714 5.714h25.714a5.72 5.72 0 0 0 5.714-5.714v-2.857h1.786c.589 0 1.071-.482 1.071-1.072V33.32c0-.589-.482-1.071-1.071-1.071h-1.786v-5.714h1.786c.589 0 1.071-.482 1.071-1.071v-3.572c0-.589-.482-1.071-1.071-1.071h-1.786v-5.714h1.786zM34.286 40.82c0 1.571-1.286 2.857-2.857 2.857H5.714c-1.571 0-2.857-1.286-2.857-2.857V6.534c0-1.571 1.286-2.857 2.857-2.857h25.714c1.571 0 2.857 1.286 2.857 2.857V40.82zM18.571 25.106c3.947 0 7.143-3.196 7.143-7.143s-3.196-7.143-7.143-7.143-7.143 3.196-7.143 7.143 3.196 7.143 7.143 7.143zm0-11.428a4.29 4.29 0 0 1 4.286 4.286 4.29 4.29 0 0 1-4.286 4.286 4.29 4.29 0 0 1-4.286-4.286 4.29 4.29 0 0 1 4.286-4.286zm4.179 12.857c-1.741 0-2.179.625-4.179.625s-2.437-.625-4.179-.625c-1.893 0-3.732.839-4.804 2.446-.643.955-1.018 2.107-1.018 3.348v3.491c0 .393.321.714.714.714h1.429c.393 0 .714-.321.714-.714v-3.491c0-.625.188-1.232.536-1.75.5-.741 1.411-1.178 2.438-1.178 1.107 0 1.857.625 4.179.625 2.313 0 3.063-.625 4.179-.625 1.027 0 1.938.446 2.438 1.178.348.518.536 1.125.536 1.75v3.491c0 .393.322.714.714.714h1.429c.393 0 .714-.321.714-.714v-3.491c0-1.241-.375-2.393-1.018-3.348-1.098-1.607-2.937-2.446-4.821-2.446z" fill="#939393"/></svg>