<svg xmlns="http://www.w3.org/2000/svg" width="40" height="32" fill="none" xmlns:v="https://vecta.io/nano"><path d="M35.758 0h-.011c-1.672.008-10.052.613-15.247 3.34-.281.147-.717.147-.999 0C14.305.613 5.925.008 4.253 0h-.011C1.903 0 0 1.838 0 4.098v20.604c0 2.181 1.765 3.978 4.017 4.09 2.415.122 8.474.574 12.631 2.109a3.22 3.22 0 0 0 1.129.21h4.444c.39 0 .763-.075 1.129-.21 4.158-1.535 10.217-1.987 12.633-2.109 2.251-.113 4.015-1.908 4.015-4.09V4.098C40 1.838 38.097 0 35.758 0zM18.889 27.847c0 .598-.496 1.051-1.06 1.051a1.07 1.07 0 0 1-.374-.068c-4.337-1.612-10.347-2.106-13.327-2.258-1.069-.053-1.906-.875-1.906-1.87V4.098c0-1.034.907-1.875 2.02-1.875 1.339.007 8.504.513 13.342 2.659.782.347 1.294 1.094 1.296 1.933l.009 6.967v14.065zm18.889-3.145c0 .995-.837 1.817-1.906 1.87-2.98.151-8.99.646-13.327 2.258a1.07 1.07 0 0 1-.374.068c-.563 0-1.06-.453-1.06-1.051V13.782l.009-6.967c.001-.84.514-1.586 1.296-1.933 4.838-2.147 12.003-2.652 13.342-2.659 1.113 0 2.02.841 2.02 1.875v20.604h.001z" fill="#939393"/></svg>