<svg xmlns="http://www.w3.org/2000/svg" width="100" height="81" fill="none" xmlns:v="https://vecta.io/nano"><path d="M80.25 32.076l-3-4.049-7.5 5.694 3 4.049 7.5-5.694zM90 30.368c2.078 0 4-.633 5.594-1.724 1.062-.727 1.984-1.661 2.703-2.736 1.078-1.613 1.703-3.559 1.703-5.662s-.625-4.049-1.703-5.662a10.2 10.2 0 0 0-1.219-1.503c-.453-.459-.953-.87-1.484-1.234C94 10.755 92.078 10.123 90 10.123s-4 .633-5.594 1.724c-1.062.727-1.984 1.661-2.703 2.736C80.625 16.196 80 18.141 80 20.245c0 5.583 4.484 10.122 10 10.122zm0-15.184c2.75 0 5 2.278 5 5.061s-2.25 5.061-5 5.061-5-2.278-5-5.061 2.25-5.061 5-5.061zm-74.406 24.5A9.85 9.85 0 0 0 10 37.959a9.85 9.85 0 0 0-5.594 1.724c-1.062.727-1.984 1.661-2.703 2.736C.625 44.033 0 45.978 0 48.082c0 5.583 4.484 10.123 10 10.123s10-4.539 10-10.123c0-2.104-.625-4.049-1.703-5.662-.719-1.076-1.641-2.009-2.703-2.736zM10 53.143c-2.75 0-5-2.277-5-5.061s2.25-5.061 5-5.061 5 2.278 5 5.061-2.25 5.061-5 5.061zm13.75-2.531h7.5v-5.061h-7.5v5.061zm73.328 13.08c-.453-.459-.953-.87-1.484-1.234C94 61.368 92.078 60.735 90 60.735s-4 .633-5.594 1.724a9.32 9.32 0 0 0-1.422 1.186L68.641 54.93C69.516 52.827 70 50.502 70 48.082c0-9.79-7.828-17.714-17.5-17.714-1.766 0-3.422.348-5.031.823l-6.141-13.302C43.563 16.038 45 13.27 45 10.123c0-2.104-.625-4.049-1.703-5.662-.719-1.076-1.641-2.009-2.703-2.736C39 .633 37.078 0 35 0s-4 .633-5.594 1.724c-1.062.728-1.984 1.661-2.703 2.736C25.625 6.074 25 8.019 25 10.123c0 5.583 4.484 10.123 10 10.123.625 0 1.234-.079 1.828-.19l6.094 13.223A17.73 17.73 0 0 0 35 48.082c0 9.79 7.828 17.714 17.5 17.714 5.469 0 10.281-2.594 13.5-6.564l14.438 8.762c-.266.917-.422 1.866-.422 2.863 0 5.583 4.484 10.123 10 10.123a9.85 9.85 0 0 0 5.594-1.724c1.063-.728 1.984-1.661 2.703-2.736A10.26 10.26 0 0 0 100 70.858c0-2.104-.625-4.049-1.703-5.662a11.32 11.32 0 0 0-1.219-1.502zM35 15.184c-2.75 0-5-2.278-5-5.061s2.25-5.061 5-5.061 5 2.278 5 5.061-2.25 5.061-5 5.061zm17.5 45.551c-6.891 0-12.5-5.678-12.5-12.653s5.609-12.653 12.5-12.653S65 41.107 65 48.082s-5.609 12.653-12.5 12.653zM90 75.919c-2.75 0-5-2.278-5-5.061s2.25-5.061 5-5.061 5 2.278 5 5.061-2.25 5.061-5 5.061z" fill="#3fa5d5"/></svg>